<?xml version="1.0" encoding="utf-8"?><svg version="1.1" id="Layer_1" xmlns="http://www.w3.org/2000/svg" xmlns:xlink="http://www.w3.org/1999/xlink" x="0px" y="0px" viewBox="0 0 115.35 122.88" style="enable-background:new 0 0 115.35 122.88" xml:space="preserve"><g><path d="M1.16,65.32l5.81-1.67l0.25,1.64c1.04,6.68,2.66,12.72,4.86,18.11c2.19,5.35,4.96,10.08,8.32,14.17l0,0 c3.31,4.03,6.86,7.05,10.66,9.05c3.75,1.98,7.77,2.97,12.05,2.97c2.18,0,4.17-0.38,5.97-1.15c1.81-0.77,3.45-1.92,4.94-3.47 c1.49-1.56,2.61-3.29,3.35-5.19c0.74-1.9,1.11-3.99,1.11-6.27c0-4.29-0.87-8.38-2.61-12.27c-1.56-3.47-3.82-6.79-6.79-9.98 c-1.67,2.11-3.46,3.98-5.38,5.6c-2.34,1.98-4.86,3.57-7.57,4.8l-1.36,0.62l-6.51-15.33l1.58-0.46c5.6-1.63,9.76-3.76,12.51-6.38 c2.61-2.5,3.92-5.47,3.92-8.93c0-1.3-0.18-2.42-0.55-3.35c-0.34-0.87-0.86-1.6-1.54-2.19l0,0c-0.73-0.6-1.66-1.06-2.78-1.38 c-1.2-0.33-2.62-0.5-4.29-0.5c-2.51,0-5.08,0.38-7.71,1.14c-2.66,0.77-5.4,1.93-8.22,3.49l-1.44,0.8l-6.26-15.45l1.25-0.59 c2.5-1.19,5.06-2.09,7.67-2.69c2.61-0.6,5.26-0.9,7.94-0.9c3.59,0,6.86,0.6,9.81,1.78c2.97,1.2,5.59,2.99,7.86,5.37 c2.26,2.37,3.96,5.11,5.08,8.2c1.12,3.08,1.68,6.49,1.68,10.24c0,1.65-0.16,3.2-0.48,4.67C54.06,60.94,53.73,62,53.3,63l0.56,0.52 c3.12-2.84,6.18-5.02,9.19-6.52c3.42-1.71,6.76-2.56,10.05-2.56c0.32,0,0.72,0.03,1.21,0.08c1.28-5.79,3.47-10.21,6.55-13.26 c3.4-3.36,7.82-5.04,13.27-5.04c3.54,0,6.66,0.73,9.35,2.2c2.69,1.47,4.93,3.65,6.7,6.57l0,0c1.74,2.83,3.03,6.35,3.89,10.55 c0.85,4.15,1.27,8.95,1.27,14.41c0,5.56-0.53,10.56-1.59,14.99c-1.07,4.48-2.68,8.4-4.83,11.75c-2.19,3.4-4.77,5.96-7.75,7.68 c-3,1.73-6.37,2.6-10.12,2.6c-2.65,0-4.94-0.44-6.86-1.31c-1.99-0.9-3.57-2.25-4.76-4.04c-1.14-1.72-1.98-3.98-2.54-6.78 c-0.53-2.71-0.8-5.95-0.8-9.71v-5.59c0-3.21-0.4-5.57-1.2-7.08c-0.64-1.2-1.58-1.8-2.82-1.8c-1.36,0-2.92,0.37-4.67,1.1 c-1.51,0.63-3.13,1.52-4.87,2.66c2.87,4.03,5.05,8.01,6.56,11.92c1.68,4.36,2.52,8.64,2.52,12.83c0,3.51-0.58,6.69-1.73,9.55 c-1.16,2.88-2.91,5.41-5.24,7.61c-2.32,2.18-5.02,3.83-8.08,4.92c-3.03,1.09-6.4,1.63-10.1,1.63c-6,0-11.61-1.36-16.84-4.07 c-5.2-2.7-9.99-6.72-14.37-12.08l0,0c-4.36-5.31-7.81-11.3-10.33-17.96C2.41,82.12,0.8,74.81,0.1,66.85L0,65.65L1.16,65.32 L1.16,65.32z M81.13,57.02c1.01,0.83,1.81,1.96,2.38,3.39c0.72,1.8,1.09,4.08,1.09,6.83v13.49c0,4.22,0.63,7.33,1.9,9.34 c1.13,1.79,2.85,2.69,5.16,2.69c2.14,0,4.09-0.49,5.86-1.47c1.79-1,3.42-2.52,4.88-4.55l0.01-0.01c1.48-2.05,2.59-4.39,3.33-7.01 c0.75-2.65,1.13-5.58,1.13-8.8c0-3.13-0.34-5.95-1.03-8.46c-0.67-2.47-1.68-4.66-3.03-6.55c-1.31-1.85-2.8-3.23-4.47-4.14 c-1.64-0.89-3.49-1.34-5.54-1.34c-2.86,0-5.3,0.64-7.32,1.91C83.75,53.42,82.31,54.98,81.13,57.02L81.13,57.02z M38.08,15.85 l4.91-3.63l0.87,1.13c2.22,2.87,4.64,5.02,7.26,6.44c2.59,1.4,5.41,2.1,8.45,2.1c2.82,0,5.44-0.7,7.87-2.08 c2.49-1.42,4.79-3.57,6.92-6.44l0.92-1.24l12.76,10.64l-1.07,1.13c-3.49,3.67-7.01,6.44-10.56,8.29 c-3.62,1.89-7.28,2.83-10.97,2.83c-5.51,0-10.6-1.45-15.26-4.36c-4.6-2.87-8.76-7.15-12.47-12.84l-0.75-1.15L38.08,15.85 L38.08,15.85z M62.29,1.02l8.88,9.03l-9.95,9.75L51.15,9.46L61.3,0L62.29,1.02L62.29,1.02z"/></g></svg>